<?xml version="1.0" standalone="no"?>
<!DOCTYPE svg PUBLIC "-//W3C//DTD SVG 20010904//EN"
 "http://www.w3.org/TR/2001/REC-SVG-20010904/DTD/svg10.dtd">
<svg version="1.0" xmlns="http://www.w3.org/2000/svg"
 width="741.000000pt" height="359.000000pt" viewBox="0 0 741.000000 359.000000"
 preserveAspectRatio="xMidYMid meet">

<g transform="translate(0.000000,359.000000) scale(0.100000,-0.100000)"
fill="#000000" stroke="none">
<path d="M298 3571 c-73 -24 -112 -49 -169 -108 -57 -60 -83 -103 -103 -174
-15 -49 -16 -201 -14 -1515 l3 -1459 28 -57 c44 -89 116 -161 205 -205 l76
-38 1360 0 1361 0 58 27 c66 31 156 112 191 172 59 102 57 16 54 1607 l-3
1454 -31 66 c-53 112 -140 192 -251 230 -54 18 -95 19 -1382 18 -1252 0 -1329
-1 -1383 -18z m2734 -178 c54 -25 90 -60 122 -118 l21 -40 0 -1425 c0 -1174
-2 -1432 -14 -1463 -19 -55 -68 -106 -126 -133 l-50 -24 -1305 0 -1305 0 -50
24 c-54 25 -98 70 -124 126 -14 32 -16 175 -16 1455 l0 1420 23 50 c37 79 75
112 167 141 32 10 307 12 1325 11 l1285 -2 47 -22z"/>
<path d="M1622 2819 c-111 -19 -204 -92 -236 -187 -21 -62 -22 -288 -1 -358
28 -94 94 -174 270 -325 70 -60 109 -102 130 -140 28 -51 30 -60 30 -164 0
-116 -10 -149 -54 -189 -29 -26 -93 -26 -128 0 -42 31 -56 70 -61 167 l-4 87
-107 0 -106 0 6 -122 c7 -141 24 -192 84 -253 21 -21 63 -49 94 -64 49 -23 68
-26 161 -26 90 1 112 4 154 25 137 67 196 212 183 445 -7 121 -34 206 -88 278
-22 29 -103 108 -181 177 -169 149 -188 178 -188 287 0 115 35 163 118 163 36
0 49 -6 72 -30 31 -34 40 -67 40 -156 l0 -64 106 0 107 0 -5 116 c-5 107 -8
121 -39 182 -26 51 -46 75 -83 99 -73 49 -174 68 -274 52z"/>
<path d="M2424 2820 c-104 -15 -188 -73 -236 -163 -21 -38 -23 -55 -23 -202
l0 -160 34 -70 c28 -56 55 -90 134 -165 238 -227 253 -243 266 -292 9 -30 12
-83 9 -145 -4 -122 -23 -161 -86 -181 -37 -12 -46 -12 -79 5 -55 27 -73 70
-73 175 l0 88 -110 0 -110 0 0 -67 c1 -208 46 -301 180 -370 50 -25 65 -28
160 -28 95 0 110 3 162 28 106 52 158 140 178 303 8 63 8 113 0 175 -21 174
-67 245 -268 419 -147 126 -181 174 -189 271 -7 68 15 140 50 164 12 8 38 15
59 15 86 0 118 -42 126 -166 l5 -84 101 0 101 0 -5 122 c-5 101 -10 132 -29
170 -57 119 -196 180 -357 158z"/>
<path d="M540 2030 l0 -770 108 0 107 0 0 117 c0 65 1 221 3 347 l2 228 74 -4
c56 -2 82 -9 103 -24 56 -41 58 -54 61 -371 l3 -293 116 0 115 0 -7 38 c-4 20
-10 163 -14 317 -8 312 -12 333 -82 404 l-34 35 45 45 c57 58 80 123 87 252
15 255 -71 397 -265 438 -29 6 -136 11 -237 11 l-185 0 0 -770z m392 544 c55
-32 73 -82 73 -199 -1 -168 -38 -215 -172 -215 l-73 0 0 221 0 222 69 -5 c42
-3 82 -13 103 -24z"/>
<path d="M5043 3545 c-170 -46 -297 -177 -332 -343 -51 -244 71 -476 291 -551
275 -94 564 50 633 314 56 218 -45 449 -240 548 -90 45 -249 59 -352 32z m255
-191 c59 -29 106 -79 135 -143 26 -58 28 -177 4 -234 -94 -221 -403 -235 -511
-24 -25 50 -30 69 -30 135 1 174 113 292 279 292 56 0 82 -5 123 -26z"/>
<path d="M3920 3093 l0 -453 100 0 100 0 0 161 0 160 47 -3 47 -3 101 -157
100 -158 113 0 113 0 -113 166 c-98 144 -111 167 -96 175 104 58 161 148 166
265 4 61 0 81 -20 126 -65 140 -179 181 -495 176 l-163 -3 0 -452z m427 273
c39 -20 63 -62 63 -111 0 -92 -51 -127 -192 -133 l-98 -4 0 137 0 138 98 -5
c63 -3 108 -11 129 -22z"/>
<path d="M5970 3530 c-15 -29 -102 -276 -206 -583 l-103 -308 101 3 102 3 28
93 29 92 177 -2 177 -3 34 -92 34 -93 98 0 99 0 -34 93 c-56 153 -201 543
-253 680 l-49 128 -113 2 c-92 2 -114 -1 -121 -13z m188 -358 c34 -92 62 -170
62 -174 0 -5 -57 -8 -126 -8 -97 0 -125 3 -121 13 2 6 28 85 58 175 29 89 56
162 59 162 3 0 33 -76 68 -168z"/>
<path d="M6630 3091 l0 -451 209 0 c240 0 296 11 391 77 111 78 169 188 177
338 12 211 -72 367 -240 446 l-72 34 -232 3 -233 3 0 -450z m423 259 c102 -38
166 -135 167 -249 0 -88 -16 -135 -67 -191 -61 -67 -117 -92 -229 -98 l-91 -5
-6 198 c-4 109 -7 236 -7 282 l0 83 90 0 c65 0 104 -5 143 -20z"/>
<path d="M4109 2234 c-73 -22 -138 -72 -173 -134 -27 -48 -31 -64 -30 -130 0
-92 24 -144 89 -193 43 -33 93 -52 263 -98 99 -26 142 -60 142 -109 0 -56 -77
-110 -158 -110 -80 0 -162 51 -162 101 0 17 -8 19 -99 19 l-99 0 10 -42 c15
-67 37 -105 90 -152 70 -64 128 -81 263 -80 90 1 121 5 169 24 120 46 186 155
172 279 -13 111 -84 185 -210 222 -213 61 -235 70 -255 95 -29 37 -27 89 3
119 54 54 176 57 228 5 15 -16 28 -38 28 -49 0 -20 5 -21 96 -21 l97 0 -6 41
c-12 92 -100 181 -210 214 -63 19 -187 18 -248 -1z"/>
<path d="M5410 2239 c-69 -13 -169 -67 -220 -119 -172 -171 -171 -503 1 -685
136 -143 370 -177 551 -78 66 36 153 130 185 200 22 47 28 77 31 156 l4 97
-226 0 -226 0 0 -75 0 -75 126 0 127 0 -7 -32 c-9 -44 -53 -98 -107 -128 -36
-20 -57 -25 -114 -25 -122 1 -209 56 -259 164 -30 67 -29 206 3 277 44 100
132 155 246 155 78 0 150 -34 197 -93 l30 -38 104 0 c57 0 104 2 104 5 0 24
-54 110 -102 160 -110 118 -276 168 -448 134z"/>
<path d="M4730 1770 l0 -460 100 0 100 0 0 460 0 460 -100 0 -100 0 0 -460z"/>
<path d="M6100 1775 l0 -455 95 0 95 0 0 312 0 312 188 -312 187 -311 108 -1
107 0 0 455 0 455 -95 0 -96 0 3 -300 c2 -165 1 -300 -2 -300 -3 0 -87 134
-187 298 l-181 297 -111 3 -111 3 0 -456z"/>
<path d="M4081 929 c-119 -47 -191 -163 -178 -286 12 -112 82 -181 224 -222
203 -58 217 -63 245 -91 42 -42 34 -94 -20 -135 -22 -16 -43 -20 -114 -20 -99
0 -136 18 -153 73 l-9 32 -97 0 -97 0 9 -41 c21 -92 78 -161 168 -203 40 -18
65 -21 181 -21 127 0 138 2 192 28 102 50 151 127 151 237 0 74 -17 121 -62
173 -41 46 -93 71 -223 106 -172 47 -198 64 -198 129 0 121 240 142 275 24 l9
-32 93 0 93 0 0 28 c0 75 -78 174 -169 215 -71 31 -246 35 -320 6z"/>
<path d="M5961 935 c-229 -64 -365 -279 -331 -524 26 -193 170 -350 358 -390
268 -56 519 97 573 350 17 77 6 222 -21 291 -44 113 -148 213 -268 259 -75 28
-233 36 -311 14z m271 -198 c61 -36 102 -84 127 -152 25 -67 27 -132 5 -205
-12 -41 -29 -67 -72 -110 -64 -63 -107 -80 -198 -80 -101 1 -198 62 -246 155
-29 56 -36 167 -14 233 22 65 87 139 151 169 70 33 181 29 247 -10z"/>
<path d="M4727 933 c-1 -1 -1 -206 1 -457 l2 -456 95 0 95 0 0 190 0 190 195
0 195 0 0 -190 0 -190 97 0 96 0 -6 302 c-4 166 -7 372 -7 458 l0 157 -95 0
-96 -1 1 -181 2 -180 -191 -3 -191 -3 0 183 0 183 -96 0 c-52 0 -96 -1 -97 -2z"/>
<path d="M6700 481 l0 -461 100 0 100 0 0 165 0 165 118 0 c194 0 275 38 333
156 27 54 32 77 33 137 1 128 -63 221 -184 269 -49 19 -80 22 -277 26 l-223 4
0 -461z m433 265 c54 -36 73 -116 42 -175 -23 -45 -69 -61 -179 -61 l-96 0 0
131 0 131 103 -4 c78 -3 109 -8 130 -22z"/>
</g>
</svg>
