<?xml version="1.0" standalone="no"?>
<!DOCTYPE svg PUBLIC "-//W3C//DTD SVG 20010904//EN"
 "http://www.w3.org/TR/2001/REC-SVG-20010904/DTD/svg10.dtd">
<svg version="1.0" xmlns="http://www.w3.org/2000/svg"
 width="226.000000pt" height="46.000000pt" viewBox="0 0 226.000000 46.000000"
 preserveAspectRatio="xMidYMid meet">

<g transform="translate(0.000000,46.000000) scale(0.100000,-0.100000)"
fill="#000000" stroke="none">
<path d="M1546 448 c4 -7 43 -57 86 -110 43 -53 78 -101 78 -107 0 -5 -35 -54
-78 -108 -43 -54 -81 -104 -86 -111 -5 -9 13 -12 81 -12 l88 0 85 108 c46 59
84 114 84 122 0 8 -38 63 -84 122 l-85 108 -88 0 c-68 0 -86 -3 -81 -12z"/>
<path d="M1907 448 c5 -7 47 -59 92 -115 l82 -103 -82 -102 c-45 -57 -87 -109
-92 -115 -7 -10 10 -13 80 -13 l90 0 91 116 92 115 -92 115 -92 114 -89 0
c-70 0 -87 -3 -80 -12z"/>
<path d="M675 413 c-35 -9 -45 -24 -45 -68 0 -52 10 -61 80 -72 38 -6 55 -13
55 -23 0 -18 -62 -27 -78 -11 -6 6 -21 11 -34 11 -17 0 -23 -6 -23 -23 0 -37
19 -47 92 -47 78 0 108 19 108 68 0 45 -20 63 -80 70 -40 5 -56 12 -58 24 -5
25 47 37 63 14 7 -9 24 -16 39 -16 21 0 26 5 26 24 0 13 -6 29 -14 35 -16 13
-101 23 -131 14z"/>
<path d="M1110 413 c-50 -10 -60 -29 -60 -119 0 -102 11 -114 105 -114 94 0
105 12 105 114 0 66 -4 86 -17 99 -20 17 -93 28 -133 20z m85 -118 l0 -60 -40
0 -40 0 -3 49 c-4 69 1 78 45 74 l38 -3 0 -60z"/>
<path d="M0 317 c0 -125 8 -137 98 -137 37 0 73 4 80 8 20 13 32 70 32 149 l0
73 -35 0 -35 0 0 -91 0 -90 -37 3 -38 3 -3 88 -3 87 -29 0 -30 0 0 -93z"/>
<path d="M250 295 l0 -115 30 0 30 0 1 93 0 92 33 -90 33 -90 57 -3 56 -3 0
116 0 115 -30 0 -29 0 -3 -87 -3 -88 -33 88 -34 87 -54 0 -54 0 0 -115z"/>
<path d="M530 295 l0 -115 30 0 30 0 0 115 0 115 -30 0 -30 0 0 -115z"/>
<path d="M840 385 c0 -21 5 -25 30 -25 l30 0 0 -90 0 -90 30 0 30 0 0 90 0 90
35 0 c31 0 35 3 35 25 0 25 0 25 -95 25 -95 0 -95 0 -95 -25z"/>
<path d="M1290 295 l0 -115 30 0 c27 0 30 3 30 30 0 29 1 30 50 30 70 0 94 25
88 91 -7 73 -17 79 -114 79 l-84 0 0 -115z m133 46 c7 -29 -11 -51 -43 -51
-28 0 -30 3 -30 35 0 33 2 35 34 35 24 0 35 -5 39 -19z"/>
<path d="M0 91 c0 -40 1 -41 36 -41 35 0 35 1 32 38 -3 34 -6 37 -35 40 -32 3
-33 2 -33 -37z m58 -5 c-4 -31 -38 -34 -38 -3 0 29 7 37 27 30 8 -3 13 -15 11
-27z"/>
<path d="M90 91 c0 -23 5 -41 10 -41 6 0 10 5 10 10 0 6 7 10 15 10 8 0 15 -4
15 -10 0 -5 4 -10 9 -10 5 0 8 17 8 38 -2 34 -4 37 -34 40 -32 3 -33 2 -33
-37z m42 -3 c-15 -15 -26 -4 -18 18 5 13 9 15 18 6 9 -9 9 -15 0 -24z"/>
<path d="M187 124 c-4 -4 -7 -23 -7 -41 0 -33 2 -34 33 -31 29 3 32 6 32 38 0
30 -4 35 -25 38 -14 2 -29 0 -33 -4z m43 -40 c0 -19 -5 -25 -17 -22 -22 4 -30
38 -12 49 19 11 29 2 29 -27z"/>
<path d="M270 115 c-7 -9 -10 -25 -6 -40 6 -22 11 -26 39 -23 39 4 53 38 15
38 -18 0 -20 -2 -8 -10 18 -11 6 -25 -15 -16 -26 10 -15 52 13 49 12 -2 22 2
22 7 0 16 -46 12 -60 -5z"/>
<path d="M361 99 c-15 -45 -15 -46 24 -45 34 1 35 2 29 31 -8 39 -12 45 -29
45 -7 0 -18 -14 -24 -31z m39 -15 c0 -14 -12 -19 -23 -8 -9 9 4 35 14 28 5 -3
9 -12 9 -20z"/>
<path d="M480 90 c0 -41 1 -41 33 -38 29 3 32 6 32 38 0 32 -3 35 -32 38 -32
3 -33 3 -33 -38z m42 15 c0 -5 -5 -11 -11 -13 -6 -2 -11 4 -11 13 0 9 5 15 11
13 6 -2 11 -8 11 -13z m8 -35 c0 -5 -7 -10 -15 -10 -8 0 -15 5 -15 10 0 6 7
10 15 10 8 0 15 -4 15 -10z"/>
<path d="M570 90 c0 -37 2 -40 28 -39 23 2 24 2 5 6 -13 2 -23 8 -23 13 0 5
10 11 23 13 l22 4 -22 2 c-13 0 -23 6 -23 11 0 6 10 15 23 20 21 8 21 9 -5 9
-26 1 -28 -2 -28 -39z"/>
<path d="M659 119 l24 -9 -21 -23 c-30 -31 -28 -37 11 -36 17 1 24 3 15 6 -22
6 -23 17 -3 33 26 22 18 40 -17 39 -31 0 -32 -1 -9 -10z"/>
<path d="M760 90 c0 -22 5 -40 10 -40 6 0 10 5 10 10 0 6 9 10 19 10 25 0 34
14 26 40 -4 14 -15 20 -36 20 -27 0 -29 -2 -29 -40z m48 8 c-6 -18 -28 -21
-28 -4 0 9 7 16 16 16 9 0 14 -5 12 -12z"/>
<path d="M840 91 c0 -23 5 -41 10 -41 6 0 10 5 10 10 0 6 7 10 15 10 8 0 15
-4 15 -10 0 -5 4 -10 9 -10 4 0 8 17 7 38 -1 34 -3 37 -33 40 -32 3 -33 2 -33
-37z m42 -3 c-15 -15 -26 -4 -18 18 5 13 9 15 18 6 9 -9 9 -15 0 -24z"/>
<path d="M943 123 c19 -5 22 -18 7 -28 -5 -3 -15 -15 -20 -26 -10 -17 -7 -19
27 -18 23 1 29 3 16 6 -28 5 -29 15 -3 38 28 26 25 35 -12 34 -18 -1 -25 -3
-15 -6z"/>
<path d="M1010 90 c0 -37 2 -40 28 -39 23 2 24 2 5 6 -13 2 -23 8 -23 13 0 5
10 11 23 13 l22 4 -22 2 c-13 0 -23 7 -23 15 0 8 10 17 23 19 19 4 18 4 -5 6
-26 1 -28 -2 -28 -39z"/>
<path d="M1084 115 c-8 -20 4 -35 27 -35 10 0 19 -5 19 -11 0 -7 -10 -9 -25
-5 -15 4 -25 2 -25 -4 0 -7 14 -10 32 -8 39 4 52 35 17 40 -12 2 -24 9 -27 17
-3 9 2 11 17 6 12 -4 21 -2 21 4 0 17 -50 13 -56 -4z"/>
<path d="M1179 119 l24 -9 -21 -23 c-30 -31 -28 -37 11 -36 17 1 24 3 15 6
-22 6 -23 17 -3 33 26 22 18 40 -17 39 -31 0 -32 -1 -9 -10z"/>
<path d="M1240 90 c0 -22 5 -40 10 -40 6 0 10 7 10 17 0 15 1 15 18 0 23 -21
39 -22 22 -2 -10 12 -10 21 -2 40 8 16 8 25 1 25 -5 0 -12 -7 -15 -15 -4 -8
-10 -15 -15 -15 -5 0 -9 7 -9 15 0 8 -4 15 -10 15 -5 0 -10 -18 -10 -40z"/>
<path d="M1337 124 c-4 -4 -7 -23 -7 -41 0 -33 2 -34 33 -31 29 3 32 6 32 38
0 30 -4 35 -25 38 -14 2 -29 0 -33 -4z m41 -37 c2 -19 -1 -27 -13 -27 -19 0
-30 24 -21 46 9 23 31 11 34 -19z"/>
<path d="M1410 90 c0 -39 1 -40 35 -40 29 0 36 4 41 25 8 33 -11 55 -47 55
-27 0 -29 -3 -29 -40z m58 -4 c-4 -31 -38 -34 -38 -3 0 29 7 37 27 30 8 -3 13
-15 11 -27z"/>
</g>
</svg>
